<svg width="25" height="24" viewBox="0 0 25 24" fill="none" xmlns="http://www.w3.org/2000/svg">
<path fill-rule="evenodd" clip-rule="evenodd" d="M12.0067 0C5.40302 0 0 5.4 0 12C0 18.6 5.40302 24 12.0067 24C18.6104 24 24.0134 18.6 24.0134 12C24.0134 5.4 18.6104 0 12.0067 0ZM12.0067 21.5C10.806 21.5 9.40526 19.5 8.70487 16.5H15.3086C14.6082 19.5 13.2074 21.5 12.0067 21.5ZM8.4047 14.5C8.20459 12.8 8.20459 11.2 8.4047 9.5H15.6087C15.8088 11.2 15.8088 12.8 15.6087 14.5H8.4047ZM2.00112 12C2.00112 11.2 2.10118 10.3 2.30129 9.5H6.30353C6.20347 10.3 6.20347 11.1 6.20347 12C6.20347 12.9 6.30353 13.7 6.30353 14.5H2.30129C2.10118 13.7 2.00112 12.8 2.00112 12ZM12.0067 2.5C13.2074 2.5 14.6082 4.5 15.3086 7.5H8.70487C9.40526 4.5 10.806 2.5 12.0067 2.5ZM17.6099 9.5H21.6121C22.0123 11.1 22.0123 12.9 21.6121 14.5H17.6099C17.7099 13.7 17.7099 12.9 17.7099 12C17.7099 11.1 17.7099 10.3 17.6099 9.5ZM20.9117 7.5H17.3097C17.0095 5.8 16.3091 4.1 15.4086 2.6C17.81 3.5 19.8111 5.2 20.9117 7.5ZM8.60482 2.6C7.60426 4.1 7.00392 5.8 6.70375 7.5H3.10174C4.20235 5.2 6.20347 3.5 8.60482 2.6ZM3.10174 16.5H6.70375C7.00392 18.2 7.70431 19.9 8.60482 21.4C6.20347 20.5 4.20235 18.8 3.10174 16.5ZM15.4086 21.4C16.4092 19.9 17.0095 18.3 17.3097 16.5H20.9117C19.8111 18.8 17.81 20.5 15.4086 21.4Z" fill="#FF416C"/>
</svg>
