<svg width="16" height="17" viewBox="0 0 16 17" fill="none" xmlns="http://www.w3.org/2000/svg">
<g clip-path="url(#clip0_15:695)">
<path d="M7.79025 8.16704C9.95313 8.16704 11.7065 6.56264 11.7065 4.58352C11.7065 2.6044 9.95313 1 7.79025 1C5.62738 1 3.87402 2.6044 3.87402 4.58352C3.87402 6.56264 5.62738 8.16704 7.79025 8.16704Z" stroke="white" stroke-width="1.5" stroke-linecap="round" stroke-linejoin="round"/>
<path fill-rule="evenodd" clip-rule="evenodd" d="M1.57765 13.1507C1.5766 12.8988 1.63817 12.6499 1.75771 12.423C2.13283 11.7365 3.19066 11.3726 4.06844 11.2079C4.70149 11.0843 5.34329 11.0017 5.98905 10.9607C7.18462 10.8646 8.3871 10.8646 9.58268 10.9607C10.2284 11.0022 10.8701 11.0847 11.5033 11.2079C12.3811 11.3726 13.4389 11.7022 13.814 12.423C14.0544 12.8856 14.0544 13.4226 13.814 13.8852C13.4389 14.6061 12.3811 14.9356 11.5033 15.0935C10.871 15.2222 10.2289 15.3071 9.58268 15.3475C8.60958 15.423 7.63193 15.4367 6.65675 15.3887C6.43168 15.3887 6.21412 15.3887 5.98905 15.3475C5.34519 15.3076 4.70562 15.2227 4.07594 15.0935C3.19066 14.9356 2.14033 14.6061 1.75771 13.8852C1.63878 13.6557 1.57727 13.4047 1.57765 13.1507Z" stroke="white" stroke-width="1.5" stroke-linecap="round" stroke-linejoin="round"/>
</g>
<defs>
<clipPath id="clip0_15:695">
<rect width="15.2998" height="17" fill="white" transform="translate(0.485352)"/>
</clipPath>
</defs>
</svg>
