<svg width="22" height="22" viewBox="0 0 22 22" fill="none" xmlns="http://www.w3.org/2000/svg">
<path d="M21.9867 9.11537C21.9797 9.03608 21.9621 8.95809 21.9344 8.88345C21.922 8.83549 21.9057 8.7886 21.8858 8.74321C21.8785 8.72946 21.8794 8.71479 21.8712 8.70104C21.8322 8.64672 21.7873 8.59692 21.7373 8.55254C21.7148 8.52027 21.69 8.48964 21.6631 8.46088L20.1653 7.23257V3.66682C20.1653 3.42371 20.0687 3.19056 19.8968 3.01865C19.7249 2.84675 19.4918 2.75017 19.2487 2.75017H14.6883L11.5809 0.207398C11.4171 0.0732813 11.2119 0 11.0002 0C10.7885 0 10.5833 0.0732813 10.4195 0.207398L7.31209 2.75017H2.74994C2.50683 2.75017 2.27368 2.84675 2.10177 3.01865C1.92987 3.19056 1.83329 3.42371 1.83329 3.66682V7.23257L0.336409 8.45813C0.309826 8.47921 0.29791 8.51313 0.274077 8.53696C0.218405 8.58519 0.169119 8.64033 0.127414 8.70104C0.119164 8.71479 0.120081 8.73037 0.112747 8.74412C0.0928838 8.78858 0.076637 8.83456 0.0641652 8.88162C0.0366076 8.9566 0.0190404 9.03488 0.0119164 9.11445C0.0119164 9.13278 0 9.14836 0 9.1667V21.0831C0 21.3262 0.0965749 21.5594 0.268479 21.7313C0.440384 21.9032 0.673536 21.9997 0.916646 21.9997H21.0829C21.1909 21.9975 21.2977 21.9761 21.3982 21.9365C21.422 21.9273 21.4449 21.9191 21.4688 21.9081C21.5638 21.8657 21.6506 21.8071 21.7254 21.7348C21.7328 21.7275 21.7373 21.7183 21.7438 21.711C21.7921 21.662 21.8345 21.6076 21.8703 21.5488C21.8803 21.5313 21.8803 21.5121 21.8895 21.4947C21.9159 21.4387 21.9362 21.38 21.95 21.3196C21.9681 21.2614 21.9801 21.2015 21.9858 21.1408C21.991 21.1218 21.9953 21.1026 21.9986 21.0831V9.1667C21.9956 9.14938 21.9916 9.13224 21.9867 9.11537ZM10.9998 2.10119L11.7936 2.75017H10.2069L10.9998 2.10119ZM3.66658 4.58347H18.3329V9.72677L10.9998 14.0598L3.66658 9.72585V4.58347ZM1.83329 20.1665V10.7736L17.7298 20.1665H1.83329ZM20.1662 19.4762L12.8037 15.1249L20.1662 10.7745V19.4762Z" fill="#4D4D4D"/>
</svg>