<svg width="25" height="25" viewBox="0 0 25 25" fill="none" xmlns="http://www.w3.org/2000/svg">
<path fill-rule="evenodd" clip-rule="evenodd" d="M16.7677 24.5117H7.42761C6.46495 24.512 5.51175 24.3226 4.62231 23.9543C3.73288 23.5861 2.92472 23.0462 2.24402 22.3655C1.56331 21.6848 1.0233 20.8765 0.65503 19.9871C0.286756 19.0976 0.0973938 18.1443 0.0976565 17.1816V7.8418C0.0973938 6.87913 0.286756 5.92581 0.65503 5.03638C1.0233 4.14694 1.56331 3.33867 2.24402 2.65796C2.92472 1.97725 3.73288 1.43737 4.62231 1.06909C5.51175 0.700818 6.46495 0.511456 7.42761 0.511719H16.7677C17.7304 0.511456 18.6836 0.700818 19.573 1.06909C20.4624 1.43737 21.2706 1.97725 21.9513 2.65796C22.632 3.33867 23.172 4.14694 23.5403 5.03638C23.9086 5.92581 24.0979 6.87913 24.0977 7.8418V17.1816C24.0979 18.1443 23.9086 19.0976 23.5403 19.9871C23.172 20.8765 22.632 21.6848 21.9513 22.3655C21.2706 23.0462 20.4624 23.5861 19.573 23.9543C18.6836 24.3226 17.7304 24.512 16.7677 24.5117ZM22.0977 7.8418C22.0963 6.4286 21.5343 5.0735 20.535 4.07422C19.5358 3.07494 18.1809 2.51304 16.7677 2.51172H7.42761C6.01442 2.51304 4.65956 3.07494 3.66028 4.07422C2.661 5.0735 2.09898 6.4286 2.09766 7.8418V17.1816C2.09898 18.5948 2.661 19.9499 3.66028 20.9492C4.65956 21.9485 6.01442 22.5104 7.42761 22.5117H16.7677C18.1809 22.5104 19.5358 21.9485 20.535 20.9492C21.5343 19.9499 22.0963 18.5948 22.0977 17.1816V7.8418ZM18.3677 7.58179C18.1036 7.58277 17.8452 7.50549 17.6251 7.35962C17.405 7.21375 17.2332 7.00577 17.1312 6.76221C17.0293 6.51865 17.0018 6.25037 17.0524 5.99121C17.1029 5.73206 17.2292 5.4938 17.4152 5.3064C17.6012 5.119 17.8385 4.99096 18.0973 4.93848C18.3561 4.886 18.6246 4.91135 18.8689 5.01148C19.1132 5.1116 19.3223 5.28199 19.4698 5.50098C19.6174 5.71996 19.6966 5.97766 19.6976 6.2417C19.6976 6.59536 19.5579 6.93478 19.3087 7.18579C19.0596 7.4368 18.7213 7.57915 18.3677 7.58179ZM12.0977 18.5117C10.911 18.5117 9.75098 18.1598 8.76428 17.5005C7.77759 16.8412 7.00845 15.9042 6.55432 14.8079C6.1002 13.7115 5.98138 12.505 6.21289 11.3411C6.4444 10.1772 7.01587 9.10816 7.85498 8.26904C8.6941 7.42993 9.76324 6.85846 10.9271 6.62695C12.091 6.39544 13.2974 6.51438 14.3938 6.96851C15.4902 7.42263 16.4271 8.19153 17.0864 9.17822C17.7457 10.1649 18.0977 11.325 18.0977 12.5117C18.0977 14.103 17.4655 15.6292 16.3403 16.7544C15.2151 17.8796 13.689 18.5117 12.0977 18.5117ZM12.0977 8.51172C11.3065 8.51172 10.5332 8.74627 9.87537 9.18579C9.21757 9.62532 8.70485 10.2501 8.4021 10.981C8.09935 11.7119 8.02022 12.5161 8.17456 13.292C8.3289 14.0679 8.70988 14.7807 9.26929 15.3401C9.8287 15.8995 10.5413 16.2805 11.3173 16.4348C12.0932 16.5892 12.8975 16.51 13.6284 16.2073C14.3593 15.9045 14.9841 15.3917 15.4236 14.7339C15.8631 14.0761 16.0977 13.3028 16.0977 12.5117C16.0977 11.4509 15.6762 10.4335 14.926 9.68335C14.1759 8.9332 13.1585 8.51172 12.0977 8.51172Z" fill="#FF4141"/>
</svg>