<svg viewBox="0 0 20 20" fill="none" xmlns="http://www.w3.org/2000/svg">
<path d="M6.5 19C6.5 19 0 10.6172 0 6.84C0 5.02592 0.684826 3.2861 1.90381 2.00335C3.1228 0.720601 4.77609 0 6.5 0C8.22391 0 9.8772 0.720601 11.0962 2.00335C12.3152 3.2861 13 5.02592 13 6.84C13 10.6172 6.5 19 6.5 19ZM6.5 1.52C5.14723 1.53264 3.85461 2.11022 2.90652 3.12572C1.95843 4.14122 1.43252 5.51146 1.44444 6.935C1.44444 9.9256 6.5 16.72 6.5 16.72C6.5 16.72 11.5556 9.9256 11.5556 6.935C11.5675 5.51146 11.0416 4.14122 10.0935 3.12572C9.14539 2.11022 7.85277 1.53264 6.5 1.52ZM3.61111 6.84C3.61111 6.23874 3.78055 5.65108 4.09799 5.15115C4.41542 4.65123 4.86657 4.26147 5.39445 4.03138C5.92233 3.80129 6.50319 3.74115 7.06357 3.85845C7.62396 3.97575 8.13874 4.26529 8.54276 4.69044C8.94677 5.11559 9.22192 5.65729 9.33339 6.24699C9.44486 6.83669 9.38762 7.44789 9.16897 8.00338C8.95032 8.55887 8.58006 9.03367 8.10499 9.36771C7.62991 9.70174 7.07137 9.88 6.5 9.88C5.73382 9.88 4.99902 9.55967 4.45724 8.98956C3.91547 8.41945 3.61111 7.64626 3.61111 6.84ZM7.94444 6.84C7.94444 6.53937 7.85975 6.24554 7.70103 5.99558C7.54231 5.74561 7.31671 5.55083 7.05277 5.43578C6.78884 5.32074 6.49838 5.29048 6.21819 5.34913C5.938 5.40778 5.68065 5.55255 5.47864 5.76513C5.27664 5.9777 5.13906 6.24864 5.08333 6.5435C5.02759 6.83835 5.05617 7.14395 5.16549 7.42169C5.27482 7.69943 5.45997 7.93674 5.69751 8.10376C5.93504 8.27078 6.21432 8.36 6.5 8.36C6.88309 8.36 7.25047 8.19993 7.52136 7.91487C7.79224 7.62982 7.94444 7.24313 7.94444 6.84Z" fill="#403F40"/>
</svg>
