<svg width="22" height="22" viewBox="0 0 22 22" fill="none" xmlns="http://www.w3.org/2000/svg">
<path fill-rule="evenodd" clip-rule="evenodd" d="M22 20.689L14.9879 13.6755C16.3323 11.9951 16.982 9.86356 16.8036 7.71892C16.6251 5.57429 15.632 3.57948 14.0284 2.14446C12.4248 0.709444 10.3325 -0.0567747 8.18147 0.00328139C6.03044 0.0633375 3.98413 0.945103 2.46306 2.46736C0.941993 3.98962 0.0616663 6.03673 0.003119 8.18798C-0.0554283 10.3392 0.712146 12.4312 2.14816 14.034C3.58418 15.6367 5.57952 16.6285 7.7241 16.8055C9.86867 16.9825 11.9997 16.3312 13.679 14.9855L20.6909 22L22 20.689ZM8.43367 14.98C7.13828 14.9808 5.8717 14.5973 4.79427 13.8781C3.71684 13.1588 2.87693 12.1362 2.3807 10.9395C1.88448 9.74285 1.7542 8.42587 2.00647 7.15517C2.25875 5.88447 2.88223 4.71714 3.79796 3.80082C4.71368 2.88451 5.88051 2.26038 7.15096 2.00737C8.42141 1.75436 9.73844 1.88385 10.9353 2.37945C12.1322 2.87505 13.1551 3.7145 13.8748 4.79162C14.5946 5.86874 14.9788 7.13515 14.9788 8.43065C14.9763 10.1663 14.2862 11.8302 13.0593 13.0578C11.8325 14.2854 10.1692 14.9767 8.43367 14.98Z" fill="#202020"/>
</svg>
