<svg width="25" height="21" viewBox="0 0 25 21" fill="none" xmlns="http://www.w3.org/2000/svg">
<path fill-rule="evenodd" clip-rule="evenodd" d="M22.5221 0.0786515L0.572169 8.54862C0.417429 8.60658 0.2849 8.71174 0.193507 8.8494C0.102114 8.98707 0.0564873 9.15012 0.0631359 9.31522C0.0697844 9.48033 0.128328 9.63921 0.230494 9.76908C0.332661 9.89895 0.473206 9.99328 0.632106 10.0386L6.21218 11.6685L8.29214 18.2085C8.34412 18.3648 8.43518 18.5052 8.55667 18.6165C8.67815 18.7277 8.82609 18.8062 8.98635 18.8443C9.14662 18.8823 9.31391 18.8788 9.47244 18.834C9.63097 18.7893 9.7754 18.7049 9.89212 18.5887L12.7821 15.6685L18.4322 19.7786C18.5912 19.8957 18.7768 19.971 18.9724 19.9981C19.168 20.0251 19.3673 20.0029 19.5521 19.9334C19.7369 19.8638 19.9014 19.7492 20.0307 19.5999C20.1599 19.4506 20.2498 19.2715 20.2921 19.0787L24.0421 1.34867C24.0818 1.14991 24.0672 0.944117 23.9998 0.752968C23.9324 0.561818 23.8147 0.3922 23.6592 0.262245C23.5037 0.132291 23.316 0.0467761 23.1159 0.0144426C22.9158 -0.017891 22.7107 0.00430126 22.5221 0.0786515ZM19.7721 4.01859L9.57217 12.9385C9.47445 13.0275 9.41074 13.1478 9.39212 13.2786L9.0021 16.7386C8.99755 16.7618 8.98562 16.7832 8.96804 16.7991C8.95047 16.815 8.92831 16.8247 8.90469 16.8269C8.88107 16.8292 8.85733 16.8239 8.83706 16.8116C8.81679 16.7992 8.801 16.7806 8.79214 16.7586L7.18215 11.6087C7.14416 11.4946 7.14631 11.3708 7.18814 11.2581C7.22996 11.1454 7.30893 11.0503 7.41214 10.9886L19.4522 3.59867C19.5082 3.56319 19.5755 3.54985 19.6408 3.56156C19.706 3.57328 19.7645 3.60915 19.8047 3.6619C19.8449 3.71465 19.8638 3.78043 19.8578 3.84647C19.8518 3.91251 19.8212 3.97399 19.7721 4.01859Z" fill="#FF4141"/>
</svg>