<svg width="25" height="17" viewBox="0 0 25 17" fill="none" xmlns="http://www.w3.org/2000/svg">
<path fill-rule="evenodd" clip-rule="evenodd" d="M23.9692 3.72168C23.8797 2.95545 23.5246 2.24475 22.9656 1.71313C22.4066 1.18152 21.6789 0.862664 20.9092 0.811768C19.0292 0.671768 16.2392 0.511719 12.7992 0.511719C8.65919 0.511719 5.52928 0.671777 3.50928 0.821777C2.73598 0.868158 2.00354 1.18501 1.44043 1.71704C0.877321 2.24907 0.519364 2.96226 0.429199 3.73169C0.309199 4.97169 0.199219 6.61177 0.199219 8.56177C0.199219 10.4618 0.309199 12.0718 0.429199 13.3018C0.521545 14.0694 0.880457 14.7801 1.44336 15.3101C2.00626 15.8401 2.73749 16.1557 3.50928 16.2017C5.52928 16.3517 8.65919 16.5117 12.7992 16.5117C16.2392 16.5117 19.0292 16.3517 20.9092 16.2117C21.6789 16.1608 22.4066 15.8419 22.9656 15.3103C23.5246 14.7787 23.8797 14.068 23.9692 13.3018C24.0892 12.0718 24.1992 10.4417 24.1992 8.51172C24.1992 6.58172 24.0892 4.95168 23.9692 3.72168ZM9.52917 11.8718V5.15161L16.4893 8.51172L9.52917 11.8718Z" fill="#FF4141"/>
</svg>